<?xml version="1.0" encoding="iso-8859-1"?>
<!-- Generator: Adobe Illustrator 19.0.0, SVG Export Plug-In . SVG Version: 6.00 Build 0)  -->
<svg version="1.1" id="Layer_1" xmlns="http://www.w3.org/2000/svg" xmlns:xlink="http://www.w3.org/1999/xlink" x="0px" y="0px"
	 viewBox="0 0 512 512" style="enable-background:new 0 0 512 512;" xml:space="preserve">
<g>
	<g>
		<path d="M467.478,322.783h-81.032l-114.76,61.07l-15.687,8.348l-15.687-8.348l-114.758-61.07H44.522
			C20.035,322.783,0,342.817,0,367.304c0,24.487,20.035,44.522,44.522,44.522h422.957c24.487,0,44.522-20.035,44.522-44.522
			C512,342.817,491.965,322.783,467.478,322.783z"/>
	</g>
</g>
<g>
	<g>
		<path d="M44.522,445.217C44.522,482.1,74.423,512,111.304,512h289.391c36.882,0,66.783-29.9,66.783-66.783H44.522z"/>
	</g>
</g>
<g>
	<g>
		<path d="M356.174,109.507h-83.478V77.068l83.478-38.535L272.696,0h-33.391v109.507h-83.478
			c-61.217,0-111.304,50.087-111.304,111.304h422.957C467.478,159.594,417.391,109.507,356.174,109.507z"/>
	</g>
</g>
<g>
	<g>
		<polygon points="44.522,254.202 44.522,287.594 130.507,287.594 256,354.376 381.493,287.594 467.478,287.594 467.478,254.202 		
			"/>
	</g>
</g>
<g>
</g>
<g>
</g>
<g>
</g>
<g>
</g>
<g>
</g>
<g>
</g>
<g>
</g>
<g>
</g>
<g>
</g>
<g>
</g>
<g>
</g>
<g>
</g>
<g>
</g>
<g>
</g>
<g>
</g>
</svg>
